<svg version="1.1" id="Camada_1" xmlns="http://www.w3.org/2000/svg" x="0" y="0" viewBox="0 0 2000 1186.2" style="enable-background:new 0 0 2000 1186.2" xml:space="preserve"><style>.st0{fill-rule:evenodd;clip-rule:evenodd}</style><path class="st0" d="M1816.2 859.2V870h65.6l-1.2-238.1 51.9 238.1h67.4V391.3h-65.7l.6 237.6-51.3-237.6h-67.4l.1 467.9zm-712 0V870h72.8c12.3.7 24.6-.7 36.4-4.2 10.1-2.4 19.7-7.8 26.2-16.1 1.8-1.8 3.6-3.6 4.8-6h.6c6-9.6 10.6-20.1 13.7-31 7.2-26.9 11.3-54.3 13.7-81.8v-.6c2.5-60.6 2.9-121.4 1.2-182 0-23.3-1.8-47.2-6.6-70.4-2.4-15.5-7.2-31-13.7-46-5.4-11.9-13.7-22.7-25.1-30.4-.6-.6-1.2-1.2-1.8-1.2h-.6c-4.2-3-9-4.8-14.3-6-6.6-1.8-13.7-3-20.3-3h-87.1v467.9h.1zm62-78.2V479.6c7.2 0 14.3 0 21.5 1.2 1.8 0 3.6.6 4.8 1.2h.6c1.8 1.2 3.6 3 4.8 4.8.6.6.6 1.2 1.2 2.4 1.8 4.8 3.6 9.6 4.8 14.3 3 10.1 4.2 20.9 4.8 31.6 3 46.6 3.6 93.1 2.4 139.7 0 19.7-1.2 39.4-3 59.1-1.2 12.5-4.2 24.5-7.8 36.4-.6 1.8-1.8 3.6-2.4 4.8h-.6c-.6 1.8-2.4 3-3.6 3.6h-.6c-1.8 1.2-4.2 1.8-6 1.8h-4.2l-16.7.5zm-477.5 78.2V870h59.1V669.4c7.2 0 13.7.6 20.3 1.8h.6c1.8 0 3.6.6 5.4 1.2 3 1.2 4.8 3 7.2 5.4 2.4 4.2 4.8 8.9 5.4 13.7 1.8 7.8 2.4 16.1 3 23.9l1.2 85.9c0 20.3 1.2 40 3.6 59.7l1.2 9h75.2l-8.3-16.7c-3.6-7.2-6.6-14.3-7.8-22.7-1.2-8.9-2.4-17.9-2.4-26.9l-2.4-99.1c0-14.3-1.2-29.2-3.6-43-1.8-11.8-6.3-23-13.1-32.8l-.6-.6c-1.5-2.1-3.3-3.9-5.4-5.4 1.2-1.2 2.4-2.4 3-3.6 7.2-10.1 12.5-21.5 14.9-34 6.6-36.4 7.8-73.4 3-109.8-1.1-13.9-4.3-27.6-9.6-40.6-4.2-11.9-11.3-22.1-20.9-30.4l-.6-.6c-10.1-7.2-22.7-11.9-35.8-12.5h-92.5l-.1 467.9zm59.1-274.5v-108h13.7c4.8 0 8.9.6 13.7 2.4 2.4 1.2 4.8 2.4 6.6 4.8 0 0 0 .6.6.6v.6c.6.6.6 1.2 1.2 1.8 2.4 4.8 4.2 10.1 4.8 14.9 2.4 19.7 1.8 39.4-.6 58.5-.6 5.4-2.4 10.1-4.2 14.9-1.2 2.4-3 4.2-4.8 6-3.8 1.8-7.8 3-11.9 3.6l-19.1-.1zm-399.2 45.9c-.6 27.5 0 54.3 1.2 81.8.6 21.5 2.4 43 4.8 64.5v.6c2.4 20.3 7.8 40.6 15.5 60.3 4.2 11.4 11.3 21.5 20.3 30.4 1.8 1.8 4.2 3 6 4.8h.6c4.2 3 8.9 4.8 13.7 6 10.1 2.4 20.3 3 30.4.6 6.1-1.3 11.9-3.5 17.3-6.6v-.6h.6c9-6.5 16.2-15.1 20.9-25.1 1.2-2.4 3-4.8 3.6-7.2 8.9-20.9 14.9-43.6 16.7-66.2 6-74 7.8-148 4.8-221.4-.6-23.9-2.4-47.9-5.4-71.6-2.4-19.7-7.8-39.4-14.9-57.9-4.8-11.3-11.9-21.5-20.9-29.8-2.4-1.8-4.2-3.6-6-4.8l-.6-.6c-4.3-2.4-8.9-4.2-13.7-5.4-10-2.4-20.4-2.4-30.4 0-6.1 1.3-11.9 3.5-17.3 6.6v.6h-.6c-8.4 6.6-15.5 15.5-20.9 25.1l-3.6 7.2c-8.3 20-13.7 41.1-16.1 62.7-4.9 48.1-7.2 97.1-6 146zm57.3.6v-.6c0-29.2 0-59.1 1.2-88.3 0-15.5 1.8-30.4 4.2-45.4v-.6c.7-6 2.3-11.8 4.8-17.3 1.2-2.4 2.4-4.8 4.8-6.6l1.2-1.2c3-1.8 7.2-1.8 10.7 0 0 .6.6.6 1.2 1.2s1.8 1.2 2.4 1.8c2.4 3.6 4.2 7.2 4.8 11.3 3 10.7 4.2 21.5 5.4 32.2 2.4 58.5 3 117 1.8 176.1v.6c.1 22.7-1.3 45.5-4.2 68-.7 6.6-2.3 13-4.8 19.1-1.2 2.4-2.4 4.8-4.8 6.6 0 .6-1.2 1.2-1.8 1.8-3 1.2-7.2 1.2-10.1-.6-.6 0-1.2-.6-1.2-.6h-.6c-.7-.7-1.3-1.5-1.8-2.4-2.4-3-4.2-7.2-5.4-11.3-2.4-9.5-4.2-19.1-4.8-29.2-2.4-38.2-3.6-76.4-3-114.6zM10.2 704H0v60.9c0 17.9 1.8 35.8 6 53.1 3.1 12.6 8.3 24.5 15.5 35.2 6.6 10.7 17.3 19.1 29.2 23.3 16.7 6 35.8 6 52.5-.6 10.1-4.2 19.7-10.8 26.3-19.1 9.9-13.4 16.7-28.9 19.7-45.3 2.4-12.4 3.6-25 3.6-37.6l.6-371.8v-10.7h-71V697c.6 25.7 0 51.3-.6 77.6 0 4.2-.6 9-1.8 13.7 0 1.2-.6 2.4-1.2 3.6-.6.6-.6 1.2-1.2 1.2-1.1 1.1-2.8 1.3-4.2.6l-1.2-.6c-.7-.9-1.3-1.9-1.8-3l-1.8-5.4c-.6-4.2-1.2-8.3-1.2-12.5v-68l-57.2-.2z"/><path d="M715 729.1c-9.2 15.3-22.2 28-37.6 37-4.2 3-9.5 4.2-14.3 4.2-6.6 0-12.5.6-19.1 1.2-5.4.6-10.2 2.4-14.3 6l-3 4.2v1.8c0 .6.6 1.2 1.2 1.8.6.6 1.8 1.2 3.6 1.2 4.2.6 9.6.6 14.3.6 4.8 0 9.6 0 14.3.6 1.2 0 2.4.6 3.6 1.2l.6.6c.6.6.6 1.2.6 1.2 0 1.8.6 4.2 2.4 5.4 2.4 2.4 5.4 3.6 8.4 4.8l28.6 10.1c4.2 1.8 7.8 3.6 10.7 6.6 3.6-6.6 9.6-11.4 16.1-13.1 7.2-1.2 14.3-1.2 21.5.6 9.5 1.8 19.1 3.6 29.2 4.8v-22.1c-3 1.1-6.4.7-9-1.2-2.8-2.1-4.9-5-6-8.3-3-7.8-3.6-16.3-1.8-24.5.6-5.4 2.4-10.1 5.4-13.7 2.4-3.6 7.2-4.8 11.3-3.6v-25.7l3.6-3.6H796c9.9-10 20.3-19.6 31-28.6 11.3-8.3 20.3-19.1 28.1-30.4-1.2-2.4-1.8-4.8-1.2-7.2 1.2-8.3 4.8-15.5 10.1-22.1 3-4.2 7.2-8.3 11.9-11.3 1.2-.6 3-1.2 4.8-1.8 2.4-.6 4.2 0 6 1.8 12.7 12.7 22.1 28.2 27.5 45.3 5.4 13.9 9.6 28.3 12.5 43 0 1.8-.6 4.2-1.2 5.4-2.4 2.4-4.2 4.8-7.2 6l-16.7 9c-2.6 1.5-4.8 3.5-6.6 6-1.2 1.2-1.2 2.4-1.8 4.2-.6 11.8-1.8 23.5-3.6 35.2-1.2 7.5-4.5 14.6-9.6 20.3-4.9 4.4-11.4 6.6-17.9 6-16.1 23.9-39.4 41.8-66.2 51.9-3.6 13.1-10.6 25-20.3 34.6-22.1 20.3-47.1 37-74.6 48.9-58.5 26.3-111.6 65.1-155.2 112.8-8.4 10.1-18.5 19.1-29.2 26.9-4.6 2.3-9.4 4.1-14.3 5.4h-2.4c-1.2-.6-2.4-1.8-3.6-3-2.9-2.8-5.3-6-7.2-9.5-1.2-1.2-1.8-2.4-2.4-3.6h-1.2c-.6 0-.6 0-.6.6l-.6.6c-1.2 17.9-8.3 34-19.7 47.1-6 6-13.7 10.1-22.1 11.3l-38.8 4.8c-7.3 1.2-14.4 3.6-20.9 7.2-7.2 4.1-11.4 12-10.7 20.3.5 16.2 10.9 30.5 26.3 35.8 16.7 7.2 35.8 8.3 53.1 3.6 20.3-3.6 39.7-10.8 57.3-21.5 8.3-6 15.5-13.1 20.9-22.1 17.3-23.9 42.4-41.2 71-48.3 10.1-3.6 19.7-9 27.5-16.1 13.1-11.9 27.5-22.7 41.8-32.8 4.2-2.4 9-4.8 13.1-6.6 34.5-15.5 67.3-34.5 97.9-56.7 23-16.3 48.1-29.4 74.6-38.8 25.7-12.5 50.1-26.3 74.6-41.2 20.4-12.5 44.1-18.6 68-17.3 15.5 3 30.4 7.8 44.8 14.9 44.8 21.5 91.9 39.4 139.7 52.5 37.6 6.6 72.9 22.6 102.7 46.6 41.8 34.6 86.5 65 134.9 90.7 34.8 18.6 62.5 48.2 78.8 84.2 1.2 4.2 3.6 7.8 7.2 10.1 3.6 3 8.3 3.6 12.5 2.4 6.6-1.8 13.1-4.8 18.5-9 14.3-11.3 28.6-21.5 43-31.6 19.3-10.4 37.3-23.1 53.7-37.6 6-6 11.3-11.9 16.1-19.1 2.4-2.4 3.6-5.4 4.8-8.3 1.1-2 1.3-4.4.6-6.6-.6-1.8-1.8-3.6-3.6-4.2-3.2-2-7-3-10.8-3-14.9 0-29.2 4.2-42.4 11.9-2.4 1.2-4.6 2.8-6.6 4.8-1.6 1.7-3.7 3-6 3.6-9.5 2.4-19.1 2.4-28.6-.6-3.7-1.2-7.1-3-10.1-5.4-1.8-1.2-3-3-4.2-5.4v-3.6c.6-4.8 1.2-10.1 1.8-14.9v-3c0-.6-.6-1.2-.6-1.8-.6 0-.6-.6-1.2-.6h-1.2c-.6.6-1.8 1.2-2.4 1.8-1.2.6-2.4 1.8-3.6 3-6 5.4-13.1 9-21.5 9-7.8 0-15.5-2.4-21.5-7.8-1.8-1.2-3-2.4-3.6-4.2-7.2-11.9-15.5-22.7-26.3-31l-87.1-72.8c-19.1-11.9-37.6-25.1-55.5-38.2-4.8-4.8-9.5-8.3-14.3-11.9-10.1-6-20.3-10.1-31.6-14.3-7.1-2.4-13.8-6-19.7-10.7-7.2-6.6-10.1-15.5-9-25.1-9-3-17.9-6.6-26.3-11.3-25.7-13.3-50.3-28.6-73.4-46-1.8-1.2-3.6-3-4.2-5.4-2.3-5.2-4.1-10.6-5.4-16.1-1.1-5.9-3.1-11.5-6-16.7-1.8-4.2-6-6.6-10.1-7.8l-6.6-1.8c-6-2.4-11.3-7.8-14.3-13.7-2.4-6.6-3.6-13.7-3-20.3 1.8-14.9 4.8-29.2 7.8-43 6-46-1.8-92.5-22.7-133.7-3.2-5.6-5.4-11.6-6.6-17.9-1.8-17.9 0-37 5.4-54.3 7.8-24 13.1-48.8 15.5-74 1.8-26.3 9-51.3 20.3-75.2 4.2-6.6 7.2-14.3 9.5-22.1 5.4-22.7 8.4-45.4 8.4-68-.6-25.7 3.6-50.7 12.5-74 1.2-2.4 2.4-4.8 4.2-6.6 3.9-2.8 8.4-4.9 13.1-6 7.8-1.8 15.5-4.8 22.1-8.9 15.5-12.5 25.1-31 25.7-50.7 0-20.3-8.4-39.4-23.9-51.9-20.6-22-53.2-27.6-80-13.7-25.7 16.7-38.2 46.5-32.8 76.4 4.2 14.9 8.9 29.2 15.5 43.6 6 12.5 8.3 26.3 7.8 40-2.3 24.5-9 48.3-19.7 70.4-7.8 16.7-13.7 34-16.7 51.9-3.6 23.9-9 47.2-16.7 69.2-4.2 13.7-13.1 25.1-25.1 32.8-4.2 3-9.6 3-14.3.6-4.5-2-8.5-4.9-11.9-8.4l-24.5-22.7c-7.2-6.1-16.3-9.5-25.7-9.5-24.1 1.9-45.9 14.9-59.1 35.2-7.2 9.5-8.4 22.1-4.2 33.4l14.3 28.6c4.2 6.6 6.6 14.3 7.8 22.7.6 3.6-.6 7.2-2.4 10.7-2.4 3.5-6 6.1-10.1 7.2-6.6 2.4-13.7 3-20.3 3-19.7 27.5-37 56.1-51.3 86.5-8.4 14.5-18 28.2-28.6 41.2-16.1 23.9-31 48.9-45.4 74-8 12.8-17.5 24.2-29.5 34.3z" style="fill-rule:evenodd;clip-rule:evenodd;fill:#c1252b"/><path class="st0" d="m1462.8 857.4-1.2 12.5h63.3l11.3-114.6h36.4L1584 870h66.2L1593 391.3h-75.2l-55 466.1z"/><path d="M635.6 650.3 601 563.2h-18.5l-34 87.1H567l7.2-19.7h35.2l7.2 19.7h19zm-32.2-34.6h-23.9l11.9-32.2 12 32.2zm382 38.2h17.3v-87.1h-17.3v87.1zm362.2 9h17.9V627h3.6c2.4-.6 4.8 0 7.2 0 1.6.4 3 1.3 4.2 2.4 1.8.6 3 2.4 4.2 3.6 3 3.6 5.4 7.2 7.8 11.3l12.6 18.5h21.5l-10.8-16.7c-1.8-3-4.2-6-6-9-3.5-5.2-8.2-9.5-13.7-12.5 2.4 0 4.8-.6 6.6-1.8 4.5-1.1 8.5-3.6 11.3-7.2 3.6-4.2 5.4-9.6 5.4-15.5 0-1.2 0-3-.6-4.2-.6-7.8-6-14.3-13.1-17.3-2-1.2-4.2-1.8-6.6-1.8-4.8-.6-9.6-1.2-14.3-.6h-37l-.2 86.7zm18-50.2v-22.1h23.3c1.2 0 2.4.6 3 .6h1.8c2.6.7 4.8 2.4 6 4.8 1.2 1.8 1.2 3.6 1.2 5.4v2.4c-.6 3.9-3.4 7.2-7.2 8.3-1.2 0-2.4 0-3.6.6h-24.5z" style="fill-rule:evenodd;clip-rule:evenodd;fill:#efeff0"/><path d="M1545.8 664.7h17.9l-9-89.5-8.9 89.5z" style="fill-rule:evenodd;clip-rule:evenodd;fill:#fff"/></svg>