<svg version="1.1" id="svg3424" xmlns="http://www.w3.org/2000/svg" x="0" y="0" viewBox="0 0 2000 1097.3" style="enable-background:new 0 0 2000 1097.3" xml:space="preserve"><style>.st0{fill:#001489}</style><g id="layer1" transform="translate(-148.4 -446.443)"><g transform="matrix(1.00738 0 0 -1.00738 -9.577 951.252)" id="g3346"><g id="g3348"><g id="g3354" transform="translate(445.779 340.059)"><path id="path3356" class="st0" d="M1643.7-913.2h7.9v17.9l9.1-.1c2.4 0 6.3-3.1 6.7-7.1.2-2.9-.2-10.5 1.2-10.5h8.1c-1.4.5-2.1 7.4-2.6 12.5-.6 6.7-5.4 8.5-6.5 9 1.5.1 8.4 3.6 8.4 9.9 0 6.8-5.8 12.7-13.2 12.7h-19.1v-44.3zm7.9 37.5h9.3c3.9 0 7-3.7 7-6.6 0-2.8-2.4-6.6-7-6.6h-9.3v13.2z"/></g><g id="g3358" transform="translate(442.648 343.339)"><path id="path3360" class="st0" d="M1625.8-894.4c0-20.3 16.5-36.8 36.8-36.8 20.4 0 36.9 16.5 36.9 36.8 0 20.4-16.5 36.9-36.9 36.9-20.3-.1-36.8-16.6-36.8-36.9m70 0c0-18.3-14.8-33.2-33.2-33.2-18.3 0-33.2 14.9-33.2 33.2 0 18.3 14.9 33.2 33.2 33.2 18.4-.1 33.2-14.9 33.2-33.2"/></g><g id="g3362" transform="translate(316.6 364.161)"><path id="path3364" class="st0" d="M905.9-775.5c7.6 8.9 12 20.8 12 33.3v45.9h-235v-51.1h129.8L698.9-873.2c-7.5-8.9-12.6-19.8-12.6-32.5v-46.7h234.8v51.1H792.3l113.6 125.8z"/></g><g id="g3366" transform="translate(404.534 375.967)"><path id="path3368" class="st0" d="M1408.1-708.1c-28.4 0-51.7-22.9-51.7-51.3v-153.5c0-28.3 23.3-51.3 51.7-51.3H1591c28.3 0 51 23 51 51.3v153.5c0 28.3-22.6 51.3-51 51.3h-182.9zm110.6-51.1c14.2 0 25.5-11.5 25.5-25.7v-102.6c0-14.1-11.4-25.7-25.6-25.7H1480c-14.2 0-25.7 11.6-25.7 25.7v102.6c0 14.2 11.6 25.7 25.7 25.7h38.7z"/></g><g id="g3370" transform="translate(264.269 375.967)"><path id="path3372" class="st0" d="M607-708.1h97.9v-204.8c0-28.3-22.7-51.2-51-51.2H607v256z"/></g><g id="g3374" transform="translate(331.107 337.813)"><path id="path3376" class="st0" d="M988.8-926c-28.3 0-51.5 23-51.5 51.3v204.8h97.9v-179.2c0-14.2 11.8-25.8 25.9-25.8h31.4c14.2 0 25.3 11.6 25.3 25.7v179.3h227.5c28.3 0 51.1-22.9 51.1-51.2V-926h-97.9v179.4c0 14.2-11.5 25.5-25.7 25.5h-57.1v-153.7c0-28.3-22.6-51.3-50.9-51.3h-176z"/></g><g id="g3378" transform="translate(242.825 389.09)"><path id="path3380" class="st0" d="M484.5-633.1c-36.7 0-69.5-16.7-91.2-42.9L143.6-977.3h141.7L474.8-749c14.2 16.9 35.5 27.7 59.4 27.7h50l-211.5-256h152c35.4 0 63.9 28.7 63.9 64.1v280H484.5z"/></g><g id="g3382" transform="translate(195.018 382.691)"><path id="path3384" class="st0" d="M211.5-669.7-38.2-970.9h141.6l189.4 228.3c14.2 16.9 35.6 27.7 59.4 27.7h51.6v88.1H302.6c-36.6.1-69.5-16.7-91.1-42.9"/></g><g id="g3386" transform="translate(322.53 389.09)"><path id="path3388" d="M939.8-633.1c-23.5 75.5-58.2 244.5 91.1 349.3C1137.5-209 1461.2-120.6 1634.7-57l124.7 169c-118.9-61-273.2-123.6-414-166.7-313.7-96.1-501.4-153.1-743.1-157.9-174-3.4-176.4 78.7-7.1 225.9-190.1-73.8-455.9-161.2-761-229.5 272.2-7.7 478.8-63 603-135.1C614.1-453.9 657-561.8 676.9-633.1h262.9zM612.2-320.7c84.8-3 150 3.6 268.3 29.5-55.8-41.6-105.1-117.4-110.7-175.4-29.4 44-97.5 112.4-157.6 145.9" style="fill-rule:evenodd;clip-rule:evenodd;fill:#001489"/></g></g></g></g></svg>